<?xml version="1.0" encoding="utf-8"?>
<!-- Generator: Adobe Illustrator 28.0.0, SVG Export Plug-In . SVG Version: 6.00 Build 0)  -->
<svg version="1.1" id="Layer_1" xmlns="http://www.w3.org/2000/svg" xmlns:xlink="http://www.w3.org/1999/xlink" x="0px" y="0px"
	 viewBox="0 0 387.9 263.2" style="enable-background:new 0 0 387.9 263.2;" xml:space="preserve">
<g>
	<g>
		<g>
			<polygon points="235.1,133.7 212.5,133.7 160.8,219.4 212.9,219.4 243.8,170.2 272.5,219.4 324.2,219.4 269.8,129.6 292.4,129.6 
				344.1,44 292,44 262.1,94.1 232.4,44 180.7,44 			"/>
			<polygon points="189.5,95.5 115.7,219.4 65.9,219.4 143.7,88.7 70.7,88.8 43.8,44 158.6,44 			"/>
		</g>
	</g>
	<g>
		<path d="M343.2,210.8c-0.2-0.7-0.5-1.3-1-1.9c-0.4-0.6-0.9-1-1.5-1.5c-0.6-0.4-1.2-0.7-1.9-1c-0.7-0.2-1.4-0.3-2.1-0.3
			c-0.7,0-1.5,0.1-2.1,0.3c-0.7,0.2-1.3,0.5-1.9,1c-0.6,0.4-1,0.9-1.5,1.5c-0.4,0.6-0.7,1.2-1,1.9c-0.2,0.7-0.3,1.4-0.3,2.1
			c0,0.7,0.1,1.5,0.3,2.1c0.2,0.7,0.5,1.3,1,1.9c0.4,0.6,0.9,1,1.5,1.5c0.6,0.4,1.2,0.7,1.9,1c0.7,0.2,1.4,0.3,2.1,0.3
			c0.7,0,1.5-0.1,2.1-0.3c0.7-0.2,1.3-0.5,1.9-1c0.6-0.4,1-0.9,1.5-1.5c0.4-0.6,0.7-1.2,1-1.9c0.2-0.7,0.3-1.4,0.3-2.1
			C343.5,212.2,343.4,211.5,343.2,210.8z M342.4,214.8c-0.2,0.6-0.5,1.1-0.8,1.6c-0.4,0.5-0.8,0.9-1.3,1.3c-0.5,0.4-1,0.6-1.6,0.8
			c-0.6,0.2-1.2,0.3-1.9,0.3c-0.7,0-1.3-0.1-1.9-0.3c-0.6-0.2-1.1-0.5-1.6-0.8c-0.5-0.4-0.9-0.8-1.3-1.3c-0.4-0.5-0.6-1-0.8-1.6
			c-0.2-0.6-0.3-1.2-0.3-1.9c0-0.7,0.1-1.3,0.3-1.9c0.2-0.6,0.5-1.1,0.8-1.6c0.4-0.5,0.8-0.9,1.3-1.3c0.5-0.4,1-0.6,1.6-0.8
			c0.6-0.2,1.2-0.3,1.9-0.3c0.7,0,1.3,0.1,1.9,0.3c0.6,0.2,1.1,0.5,1.6,0.8c0.5,0.4,0.9,0.8,1.3,1.3c0.4,0.5,0.6,1,0.8,1.6
			c0.2,0.6,0.3,1.2,0.3,1.9C342.7,213.6,342.6,214.2,342.4,214.8z"/>
		<path d="M338.2,213.5c0.4-0.2,0.6-0.4,0.8-0.8c0.2-0.3,0.3-0.7,0.3-1.1c0-0.4-0.1-0.8-0.3-1.1c-0.2-0.3-0.4-0.6-0.8-0.8
			c-0.4-0.2-0.8-0.3-1.4-0.3h-2.4v7.2h0.9v-2.8h1.6c0.1,0,0.1,0,0.2,0l1.5,2.8h1l-1.7-3C338,213.5,338.1,213.5,338.2,213.5z
			 M335.3,210.1h1.5c0.4,0,0.7,0.1,0.9,0.2c0.2,0.1,0.4,0.3,0.5,0.5c0.1,0.2,0.2,0.5,0.2,0.8c0,0.3-0.1,0.5-0.2,0.7
			c-0.1,0.2-0.3,0.4-0.5,0.5c-0.2,0.1-0.5,0.2-0.9,0.2h-1.5V210.1z"/>
	</g>
</g>
</svg>
