<?xml version="1.0" encoding="UTF-8"?>
<svg id="Layer_1" data-name="Layer 1" xmlns="http://www.w3.org/2000/svg" viewBox="0 0 765.55 241.14">
  <defs>
    <style>
      .cls-1 {
        fill: #0626a9;
      }
    </style>
  </defs>
  <path class="cls-1" d="M764.41,38.98c-6.1-29.42-35.22-44.13-74.89-37.34-30.23,5.37-58.8,25.17-83.48,57.42-9.15,12.16-13.87,15.84-13.87,10.75,0-1.13,8.04-15.27,17.47-31.12,9.15-15.56,16.43-34.38,16.43-34.38-5.61-1.86-22.26-4.32-40.01-4.32-42.99,0-72.11,11.82-90.7,25.68l-92.36,74.96-39.66,28.29c-1.94,1.41-3.33.28-1.11-1.98,6.1-4.81,36.61-34.63,33.28-40.01L344.05,6.64l-.03-.05c-2.05-3.03-5.35-5.13-9.15-5.61-.15-.02-.3-.04-.46-.05C325.95,0,307.78,0,265.82,0l89.42,140.03-51.23,42.08c-23.02,18.95-43.27,22.06-53.81,11.31-6.1-6.22-8.04-10.47-2.77-32.81l1.66-7.07c21.08-87.12,23.58-95.33,20.25-113.43-6.38-30.55-35.5-45.26-74.89-38.47-30.23,5.37-59.08,25.17-83.48,57.42-9.43,12.16-13.87,15.84-13.87,10.75,0-1.13,7.77-15.27,17.2-31.12,9.43-15.56,17.2-35.87,17.2-36.72,0-1.13-7.16-1.98-16.55-1.98h-55.28l-29.86,118.42C14.57,179.92.79,234.29.31,235.74v.02c-.06.28-.11.57-.11.88,0,1.66,1.16,3.05,2.72,3.41.02,0,.04.01.05.02.02,0,.03,0,.05.01.02,0,.05,0,.07,0,4.31.84,14.09.85,35.35.85h32.53s11.68-46.5,19.75-78.62c16.14-64.28,21.35-81.18,37.71-99.29,13.31-14.43,27.74-21.21,43.82-21.5,13.04-.28,24.96,3.11,24.13,24.04,0,6.79-8.32,46.39-18.86,87.69l-1.66,7.35c-10.82,49.78,1.11,80.33,48.81,80.33,30.79,0,54.92-18.67,71-32.81l66.23-57.66,53.83,84.22.08.05c1.85,2.47,4.56,4.27,7.69,4.94.07.01.12.03.19.04.46.09.93.15,1.41.2l.05.03c8.4.98,26.45.98,68.79.98l-82.99-129.85,66.39-52.29c19.14-15.27,39.11-32.81,51.31-32.81s15.85,16.69,12.25,31.4l-15.36,61.1-29.43,117.27c-.02.08-.04.16-.06.24,0,.01,0,.03-.01.04-.04.22-.07.46-.07.69,0,1.68,1.19,3.09,2.77,3.43,0,0,0,0,0,0,.02,0,.03,0,.05.01,0,0,0,0,.01,0,4.11.77,13.29.77,32.9.77h34.37l19.77-78.62c16.24-64.57,21.3-81.18,37.94-99.29,13.31-14.43,27.46-21.21,43.54-21.5,13.87-.28,25.24,3.68,24.41,24.04,0,6.79-8.68,46.39-18.94,87.68-10.26,41.86-20.2,80.55-20.65,82.48v.02c-.07.3-.13.61-.13.93,0,1.68,1.19,3.09,2.77,3.43.02,0,.03,0,.05.01,4.08.8,13.25.8,32.99.8h34.95l21.81-87.41c19.97-81.75,23.13-97,19.81-114.53Z"/>
</svg>