<?xml version="1.0" encoding="UTF-8"?>
<svg id="Layer_1" data-name="Layer 1" xmlns="http://www.w3.org/2000/svg" viewBox="0 0 765.55 439.33">
  <defs>
    <style>
      .cls-1 {
        fill: #0626a9;
      }
    </style>
  </defs>
  <g>
    <g>
      <g>
        <path class="cls-1" d="M13.09,290.84v-.48h-2.51v46.19H.53v-55.18h14.05l21.51,34.05c2.51,3.86,3.45,6.86,3.45,11.67v.47h2.51v-46.27h10.05v55.26h-14.05l-21.59-34.05c-2.43-3.94-3.37-6.93-3.37-11.66"/>
        <path class="cls-1" d="M91.13,311.88v-9.54l-14.36,9.93c-4.71,3.31-6.59,6.07-6.59,9.61,0,4.97,3.53,7.96,8.63,7.96,7.3,0,12.32-6.23,12.32-17.97M59.65,324.26c0-5.83,1.81-9.93,6.75-13.87l1.96-1.58c3.69-2.84,6.52-3.86,11.3-3.86h5.49v-2.44h-25.04v-7.96h40.97v42.01h-9.97v-11.59h-2.04c-1.02,8.35-7.22,12.61-15.15,12.61-8.63,0-14.29-5.6-14.29-13.32"/>
        <path class="cls-1" d="M118.28,320.32v-17.81h-11.3v-7.96h11.7v-11.98l9.5-5.12v17.1h16.56v7.96h-22.61v2.36h1.41c3.14.08,4.63,2.05,4.63,4.88v9.7c0,5.99,2.9,9.14,8.48,9.14h8.08v7.96h-10.6c-10.2,0-15.86-5.68-15.86-16.24"/>
        <path class="cls-1" d="M150.98,294.54h9.97v42.01h-9.97v-42.01ZM148.62,280.2c0-4.1,3.14-7.25,7.3-7.25s7.38,3.15,7.38,7.25-3.22,7.41-7.38,7.41-7.3-3.16-7.3-7.41"/>
        <path class="cls-1" d="M202.97,315.43c0-8.36-5.57-14.19-13.42-14.19s-13.34,5.83-13.34,14.19,5.49,14.34,13.34,14.34,13.42-5.91,13.42-14.34M166.47,315.43c0-13.09,9.42-22.15,23.08-22.15s23.16,9.06,23.16,22.15-9.42,22.31-23.16,22.31-23.08-9.07-23.08-22.31"/>
        <path class="cls-1" d="M218.47,294.54h9.97v11.43h2.04c.63-8.04,6.67-12.45,14.36-12.45,8.95,0,14.36,5.6,14.36,15.6v27.43h-9.89v-25.54c0-6.31-3.69-9.7-8.87-9.7-7.3,0-12.01,6.62-12.01,18.21v17.03h-9.97v-42.01Z"/>
        <path class="cls-1" d="M297.31,311.88v-9.54l-14.36,9.93c-4.71,3.31-6.59,6.07-6.59,9.61,0,4.97,3.53,7.96,8.63,7.96,7.3,0,12.32-6.23,12.32-17.97M265.83,324.26c0-5.83,1.81-9.93,6.75-13.87l1.96-1.58c3.69-2.84,6.51-3.86,11.3-3.86h5.49v-2.44h-25.04v-7.96h40.97v42.01h-9.97v-11.59h-2.04c-1.02,8.35-7.22,12.61-15.15,12.61-8.63,0-14.29-5.6-14.29-13.32"/>
      </g>
      <rect class="cls-1" x="315.77" y="275.07" width="9.97" height="61.48"/>
      <g>
        <path class="cls-1" d="M411.16,290.84v-.48h-2.51v46.19h-10.05v-55.18h14.05l21.51,34.05c2.51,3.86,3.45,6.86,3.45,11.67v.47h2.51v-46.27h10.05v55.26h-14.05l-21.59-34.05c-2.43-3.94-3.37-6.93-3.37-11.66"/>
        <path class="cls-1" d="M488.21,311.09c-.79-6.62-5.97-10.4-12.95-10.4s-11.85,3.78-13.19,10.4h26.14ZM452.19,315.59c0-13.48,9.03-22.38,23.08-22.38,14.83,0,23.63,9.61,22.45,25.22l-28.26-.08c-3.77,0-5.34-1.18-5.57-4.73h-2.2l-.08,1.82c0,9.38,5.18,15.05,13.58,15.05,6.75,0,11.46-3.94,13.11-10.17l7.3,6.46c-3.77,7.01-10.99,10.96-20.33,10.96-14.05,0-23.08-8.51-23.08-22.15"/>
        <path class="cls-1" d="M506.66,320.32v-17.81h-11.3v-7.96h11.7v-11.98l9.5-5.12v17.1h16.56v7.96h-22.61v2.36h1.41c3.14.08,4.63,2.05,4.63,4.88v9.7c0,5.99,2.9,9.14,8.48,9.14h8.09v7.96h-10.6c-10.2,0-15.86-5.68-15.86-16.24"/>
        <path class="cls-1" d="M533.65,294.54h10.13l6.67,20.65c1.41,4.41,1.88,7.56,1.88,12.37v1.11h2.36v-.87c0-4.65.47-7.8,1.88-12.37l6.52-20.89h10.36l6.36,20.89c1.33,4.49,1.8,7.64,1.8,12.37v.87h2.36v-1.11c0-4.65.47-7.88,1.96-12.37l6.67-20.65h9.57l-13.19,42.01h-11.7l-6.04-18.84c-1.41-4.49-1.96-7.64-1.96-12.37v-2.92h-2.28v2.92c.08,4.65-.47,7.8-1.96,12.37l-6.12,18.84h-12.09l-13.19-42.01Z"/>
        <path class="cls-1" d="M635.5,315.47c0-8.36-5.57-14.19-13.42-14.19s-13.34,5.83-13.34,14.19,5.49,14.34,13.34,14.34,13.42-5.91,13.42-14.34M599,315.47c0-13.09,9.42-22.15,23.08-22.15s23.16,9.06,23.16,22.15-9.42,22.31-23.16,22.31-23.08-9.07-23.08-22.31"/>
        <path class="cls-1" d="M647.49,294.54h9.97v14.5h2.04c.71-10.24,6.67-14.9,16.01-14.9h5.26v8.75h-5.81c-12.01,0-17.5,7.18-17.5,20.18v13.48h-9.97v-42.01Z"/>
        <path class="cls-1" d="M709.65,336.63l-16.41-19.31v19.23h-9.81v-61.48h9.81v38.78l16.41-19.31h13.03l-13.19,15.69c-3.38,3.16-6.2,4.26-10.91,4.26h-2.28v2.29h2.9c4.63,0,7.46,1.03,10.91,4.25l13.19,15.69-13.66-.08Z"/>
      </g>
    </g>
    <path class="cls-1" d="M356.09,315.59l-17.74-21.05h12.09l6.59,7.57c2.9,3.31,3.93,6.07,3.93,10.64v-.87h2.51v.87c0-4.5,1.02-7.25,4-10.64l6.51-7.57h12.09l-17.74,21.05,17.74,20.97h-12.09l-6.51-7.57c-2.9-3.31-4-6.07-4-10.64v.79h-2.51c-.08,4.02-1.1,6.7-3.93,9.85l-6.59,7.57h-12.09l17.74-20.97Z"/>
  </g>
  <path class="cls-1" d="M764.83,42.56c-6.1-29.42-35.22-44.13-74.89-37.34-30.23,5.37-58.8,25.17-83.48,57.42-9.15,12.16-13.87,15.84-13.87,10.75,0-1.13,8.04-15.27,17.47-31.12,9.15-15.56,16.43-34.38,16.43-34.38-5.61-1.86-22.26-4.32-40.01-4.32-42.99,0-72.11,11.82-90.7,25.68l-92.36,74.96-39.66,28.29c-1.94,1.41-3.33.28-1.11-1.98,6.1-4.81,36.61-34.63,33.28-40.01l-51.48-80.31-.03-.05c-2.05-3.03-5.35-5.13-9.15-5.61-.15-.02-.3-.04-.46-.05-8.46-.93-26.62-.93-68.59-.93l89.42,140.03-51.23,42.08c-23.02,18.95-43.27,22.06-53.81,11.31-6.1-6.22-8.04-10.47-2.77-32.81l1.66-7.07c21.08-87.12,23.58-95.33,20.25-113.43-6.38-30.55-35.5-45.26-74.89-38.47-30.23,5.37-59.08,25.17-83.48,57.42-9.43,12.16-13.87,15.84-13.87,10.75,0-1.13,7.77-15.27,17.2-31.12,9.43-15.56,17.2-35.87,17.2-36.72,0-1.13-7.16-1.98-16.55-1.98h-55.28l-29.86,118.42C14.99,183.5,1.2,237.87.73,239.32v.02c-.06.28-.11.57-.11.88,0,1.66,1.16,3.05,2.72,3.41.02,0,.04.01.05.02.02,0,.03,0,.05.01.02,0,.05,0,.07,0,4.31.84,14.09.85,35.35.85h32.53s11.68-46.5,19.75-78.62c16.14-64.28,21.35-81.18,37.71-99.29,13.31-14.43,27.74-21.21,43.82-21.5,13.04-.28,24.96,3.11,24.13,24.04,0,6.79-8.32,46.39-18.86,87.69l-1.66,7.35c-10.82,49.78,1.11,80.33,48.81,80.33,30.79,0,54.92-18.67,71-32.81l66.23-57.66,53.83,84.22.08.05c1.85,2.47,4.56,4.27,7.69,4.94.07.01.12.03.19.04.46.09.93.15,1.41.2l.05.03c8.4.98,26.45.98,68.79.98l-82.99-129.85,66.39-52.29c19.14-15.27,39.11-32.81,51.31-32.81s15.85,16.69,12.25,31.4l-15.36,61.1-29.43,117.27c-.02.08-.04.16-.06.24,0,.01,0,.03-.01.04-.04.22-.07.46-.07.69,0,1.68,1.19,3.09,2.77,3.43,0,0,0,0,0,0,.02,0,.03,0,.05.01,0,0,0,0,.01,0,4.11.77,13.29.77,32.9.77h34.37l19.77-78.62c16.24-64.57,21.3-81.18,37.94-99.29,13.31-14.43,27.46-21.21,43.54-21.5,13.87-.28,25.24,3.68,24.41,24.04,0,6.79-8.68,46.39-18.94,87.68-10.26,41.86-20.2,80.55-20.65,82.48v.02c-.07.3-.13.61-.13.93,0,1.68,1.19,3.09,2.77,3.43.02,0,.03,0,.05.01,4.08.8,13.25.8,32.99.8h34.95l21.81-87.41c19.97-81.75,23.13-97,19.81-114.53Z"/>
  <rect class="cls-1" x="713.44" y="357.08" width="9.81" height="61.48"/>
  <g>
    <path class="cls-1" d="M155.79,377.91c3.09,0,5.49-2.35,5.49-5.51s-2.39-5.39-5.49-5.39-5.43,2.34-5.43,5.39,2.34,5.51,5.43,5.51Z"/>
    <path class="cls-1" d="M93.42,424.85c-3.09,0-5.43,2.34-5.43,5.39s2.34,5.51,5.43,5.51,5.49-2.35,5.49-5.51-2.39-5.39-5.49-5.39Z"/>
    <path class="cls-1" d="M79,424.85c-3.09,0-5.43,2.34-5.43,5.39s2.34,5.51,5.43,5.51,5.49-2.35,5.49-5.51-2.39-5.39-5.49-5.39Z"/>
    <path class="cls-1" d="M29.18,364.81c3.09,0,5.49-2.35,5.49-5.51s-2.39-5.39-5.49-5.39-5.43,2.34-5.43,5.39,2.34,5.51,5.43,5.51Z"/>
    <path class="cls-1" d="M14.75,364.81c3.09,0,5.49-2.35,5.49-5.51s-2.39-5.39-5.49-5.39-5.43,2.34-5.43,5.39,2.34,5.51,5.43,5.51Z"/>
    <path class="cls-1" d="M404.33,364.81c3.09,0,5.49-2.35,5.49-5.51s-2.39-5.39-5.49-5.39-5.43,2.34-5.43,5.39,2.34,5.51,5.43,5.51Z"/>
    <path class="cls-1" d="M389.91,364.81c3.09,0,5.49-2.35,5.49-5.51s-2.39-5.39-5.49-5.39-5.43,2.34-5.43,5.39,2.34,5.51,5.43,5.51Z"/>
    <path class="cls-1" d="M634.83,367.98c3.09,0,5.49-2.35,5.49-5.51s-2.39-5.39-5.49-5.39-5.43,2.34-5.43,5.39,2.34,5.51,5.43,5.51Z"/>
    <path class="cls-1" d="M553.04,424.85c-3.09,0-5.43,2.34-5.43,5.39s2.34,5.51,5.43,5.51,5.49-2.35,5.49-5.51-2.39-5.39-5.49-5.39Z"/>
    <path class="cls-1" d="M636.61,374.69c0,3.16,2.34,5.51,5.43,5.51s5.49-2.35,5.49-5.51-2.39-5.39-5.49-5.39-5.43,2.34-5.43,5.39Z"/>
    <path class="cls-1" d="M627.62,380.2c3.09,0,5.49-2.35,5.49-5.51s-2.39-5.39-5.49-5.39-5.43,2.34-5.43,5.39,2.34,5.51,5.43,5.51Z"/>
    <rect class="cls-1" x="338.95" y="357.08" width="9.72" height="60.98"/>
    <path class="cls-1" d="M316.37,399.33c0,2.31-1.47,8.16-6.77,8.16-.23,0-.49,0-.77,0h-.02c-2.3,0-9.1-.01-12.41-.01h0s-8.69,0-8.69,0c-.11-8.9-2.57-20.76-12.57-23.16-12.09-2.9-22.62,6.05-21.94,18.38.74,13.44,13.98,14.19,24.66,14.62-2,4.43-7.4,7.89-12.37,7.89-4.44,0-1.43,0-2.69,0l-6,10.48c1.68,0,11.19,0,14.77-.94,8.1-2.11,13.76-8.62,15.41-16.69h24.83c9.96,0,14.26-7.62,14.26-13.22v-47.76h-9.72v42.25ZM279.41,407.48h-9.32c-.4,0-2.79-.09-3.32-.26-9.83-3.01-4.52-16.15,5.63-13.7,3.97.96,7.01,5.77,7.01,9.71v4.24Z"/>
  </g>
  <path class="cls-1" d="M206.63,384.52c-3.2,2.67-6.04,6.21-6.89,11.45h-2.38v-38.89h-9.72v50.4h-27.71v-22.97s-9.72,0-9.72,0v15.49c0,2.69-.4,7.48-6.11,7.48h-45.02c1.13-7.07.98-11.04.98-22.97h-9.72v15.49c0,4.24-3.15,7.48-6.35,7.48h-35.99c-.09-.01-.19-.01-.28,0h-2.64c-2.59-.38-7.16-1.39-7.16-6.4v-29.5h-9.72v5.93c-8.86,1.79-26.75,7.36-28.45,20.36-1.3,9.93,4.78,14.7,12.57,14.89,5.2-.16,12.26-3.4,13.51-10.39h2.37s.39,4.12,1,6.07c2.19,7,8.29,9.44,15.05,9.63,0,0,.74,0,2.06,0,0,0,.02,0,.03,0h39.32c9.04,0,11.33-5.2,12.25-7.62h2.37c0,2.97,2.42,7.62,6.42,7.62h38.3c11.14,0,12.43-7.6,12.55-7.62h2.37c0,2.97,2.42,7.62,6.39,7.62h53.91c9.57,0,19.08-3.78,19.91-14.81,1.93-25.89-18.52-29.94-33.51-18.73ZM28.22,399.52c-4.27,1.39-15.77,6.19-17.81-.46-2.49-8.12,12.03-11.98,17.81-12.93v13.39ZM222.93,407.48h-25.56v-7.21c6.37-6.41,18.94-15.72,28.59-10.8,5.47,2.79,7.24,18.01-3.02,18.01Z"/>
  <path class="cls-1" d="M690.86,357.08v42.25c0,2.31-1.47,8.16-6.77,8.16-2.12,0-3.79-.01-7.52-.01-3.34,0-6.17,0-6.42,0h-7.75c1.3-6.67.53-16.31-.35-22.97h-9.13c.37,7.22,5.35,24.22-6.72,23.16-2.24-.19-5-1.37-5.82-3.62-.11-.29-.52-1.99-.52-2.17v-15.62h-9.18v15.62c0,1.81-1.72,4.44-3.4,5.22-2.87,1.33-8.29.58-10-2.36-.23-.4-.91-2.01-.91-2.33v-17.92h-9.18v17.92c0,.52-.29,5.05-5.88,5.05h-42.8v-22.97h-9.18v14.95c0,3.65-.18,8.06-6.41,8.02-4.12.03-30.42,0-30.42,0,1.93-3.57,1.71-6.86,1.71-9.36,0-7.76-10.02-17.49-19.44-17.49v-2.37c9.77,0,24.3-11.88,24.3-11.88v-9.29l-34.25,18.5.21,8.52c.28.47,18.71,7.49,18.71,14.84,0,6.31-5.86,8.34-10.45,8.54h-76.3c-2.59-.38-7.16-1.39-7.16-6.4v-29.5h-9.72v5.93c-8.86,1.79-26.75,7.36-28.45,20.36-1.3,9.93,4.78,14.7,12.57,14.89,5.2-.16,12.26-3.4,13.51-10.39h2.37s.39,4.12,1,6.07c2.19,7,8.29,9.44,15.05,9.63,0,0,74.34-.05,77.66-.05,4.87,0,13.07-1.55,17.42-7.58h2.37c0,2.96,2.42,7.63,6.42,7.62,8.59,0,18.98-.03,27.6,0,6.09.02,10.75-.78,10.75-7.62h2.37c0,2.98,2.42,7.62,6.42,7.62h31.81c4.12,0,7-3.46,7-7.62h2.37c2.79,9.12,17.55,11.2,26.47,2.97,7.13,7.33,22.8,7.23,26.53-2.97h2.37c0,5.44,3.99,7.62,7.42,7.62,5.52,0,15.14.02,15.14.02,9.96,0,14.26-7.64,14.26-13.25v-47.75h-9.72ZM400.13,399.52c-4.27,1.39-15.77,6.19-17.81-.46-2.49-8.12,12.03-11.98,17.81-12.93v13.39Z"/>
</svg>